<svg xmlns="http://www.w3.org/2000/svg"  viewBox="0 0 24 24" width="24px" height="24px"><path d="M2.723,9.505H0.274c-0.139,0-0.251,0.084-0.252,0.251L0,15.759C0,15.909,0.098,15.984,0.233,15.984c0.368,0,0.668,0,1.035,0	c0.128,0,0.233-0.063,0.233-0.188c0-0.556,0-1.242,0-1.797l1.063,0.005c0.7-0.046,1.168-0.371,1.363-1.026	c0.059-0.197,0.07-0.367,0.07-0.569l0.055-1.431C4,9.973,3.475,9.59,2.723,9.505z M2.498,12.232c0,0.147-0.121,0.268-0.267,0.268	H1.5V11h0.731c0.147,0,0.267,0.12,0.267,0.268V12.232z M6.969,9.5H5.258c-0.13,0-0.242,0.04-0.242,0.176c0,0.353,0,0.748,0,1.101	C5.03,10.923,5.132,11,5.276,11h1.428c0.297,0,0.266,0.486,0,0.5H5.92c-0.87,0-1.42,0.781-1.42,1.569c0,0.21,0.003,0.703,0,0.932	c-0.004,0.326-0.007,0.656,0.056,0.95C4.668,15.469,5.118,16,5.799,16h2.114c0.271,0,0.587-0.237,0.587-0.551v-4.137	C8.513,10.221,7.971,9.558,6.969,9.5z M7,14.275C7,14.399,6.899,14.5,6.776,14.5H6.224C6.101,14.5,6,14.399,6,14.275v-1.051	C6,13.101,6.101,13,6.224,13h0.553C6.899,13,7,13.101,7,13.224V14.275z M9,9.797v2.804C9.062,13.401,9.804,14,10.586,14h0.707	c0.299,0,0.281,0.485,0,0.485H9.745c-0.17,0-0.231,0.089-0.231,0.238v1.076c0,0.113,0.092,0.198,0.211,0.198h1.48	c1.208,0,1.796-0.58,1.796-1.879v-4.42c0-0.138-0.087-0.192-0.171-0.192h-1.151c-0.112,0-0.178,0.122-0.178,0.211v2.609	c0,0.1-0.056,0.158-0.145,0.158h-0.651c-0.132,0-0.205-0.072-0.205-0.198V9.757c0-0.149-0.061-0.258-0.225-0.258	c-0.389,0-0.721,0-1.11,0C9.034,9.5,9,9.631,9,9.797L9,9.797z"/><path d="M13.519,10.784V9.715c0-0.119,0.097-0.216,0.215-0.216H14c0.684-0.143,0.926-0.31,1.344-0.761	c0.257-0.279,0.483-0.352,0.649-0.057L16,9.5h0.785C16.904,9.5,17,9.597,17,9.715v1.069C17,10.902,16.903,11,16.785,11H16v4.785	C16,15.903,15.903,16,15.785,16h-1.07c-0.119,0-0.215-0.097-0.215-0.216V11h-0.766C13.617,11,13.519,10.903,13.519,10.784	L13.519,10.784z M21.496,15.732c0,0.147-0.122,0.268-0.27,0.268h-0.955c-0.149,0-0.27-0.121-0.27-0.268v-3.312v-0.936	c0-0.642-1.001-0.642-1.001,0v4.247C19,15.879,18.879,16,18.731,16H17.77c-0.149,0-0.27-0.121-0.27-0.268V9.768	c0-0.148,0.122-0.269,0.27-0.269h0.988c0.149,0,0.27,0.121,0.27,0.269v0.146c0.66-0.633,1.651-0.487,2.208,0.114	c1.049-1.203,2.845-0.131,2.762,1.188c0,1.458-0.013,3.047-0.013,4.517c0,0.147-0.122,0.268-0.269,0.268H22.77	c-0.149,0-0.27-0.121-0.27-0.268c0-1.393,0-2.851,0-4.22c0-0.654-1-0.685-1,0v4.22H21.496z" opacity=".35"/></svg>